<svg width="18" height="19" viewBox="0 0 18 19" fill="none" xmlns="http://www.w3.org/2000/svg">
<rect y="0.816406" width="18" height="18" rx="3" fill="#4993ff"/>
<path d="M14.8661 10.0843C14.7768 9.87 14.6696 9.70033 14.5447 9.57532L11.8125 6.8432C11.7456 6.77622 11.6652 6.71373 11.5714 6.65571V4.45932C11.5714 4.28069 11.5089 4.1288 11.3839 4.0039C11.259 3.87884 11.1071 3.81641 10.9286 3.81641H3.6428C3.46428 3.81641 3.31246 3.87887 3.18745 4.0039C3.06246 4.12887 3 4.28069 3 4.45932V13.4593C3 13.6378 3.06246 13.7896 3.18745 13.9144C3.31246 14.0395 3.46428 14.1019 3.6428 14.1019H7.28572V15.1734C7.28572 15.352 7.34816 15.5038 7.47317 15.6287C7.59812 15.7538 7.74994 15.8162 7.92852 15.8162H14.3572C14.5357 15.8162 14.6876 15.7538 14.8125 15.6287C14.9375 15.5038 15 15.352 15 15.1734V10.6734C15 10.4949 14.9554 10.2985 14.8661 10.0843ZM11.5714 7.81413L13.5737 9.81631H11.5714V7.81413ZM4.92853 5.53056C4.87051 5.53056 4.82029 5.50939 4.77788 5.46696C4.7355 5.42453 4.71428 5.3744 4.71428 5.31631V4.88777C4.71428 4.82974 4.7355 4.77948 4.77788 4.73712C4.82031 4.69469 4.87051 4.67351 4.92853 4.67351H9.64294C9.70089 4.67351 9.75111 4.69469 9.79352 4.73712C9.8359 4.7795 9.85724 4.82974 9.85724 4.88777V5.31631C9.85724 5.37443 9.83583 5.42455 9.79352 5.46696C9.75111 5.50939 9.70089 5.53056 9.64277 5.53056H4.92853ZM14.1428 14.9593H8.14273V7.24484H10.7143V10.0307C10.7143 10.2092 10.7768 10.361 10.9018 10.486C11.0267 10.6109 11.1784 10.6734 11.3571 10.6734H14.1428V14.9593Z" fill="white"/>
</svg>
