<svg width="18" height="18" viewBox="0 0 18 18" fill="none" xmlns="http://www.w3.org/2000/svg">
<rect width="18" height="18" rx="3" fill="#ffc107"/>
<path d="M9.00361 12.7414C9.00361 12.9528 8.88147 13.1448 8.69032 13.2345C8.61642 13.2694 8.53722 13.2863 8.45854 13.2863C8.33395 13.2863 8.21052 13.2435 8.11082 13.1608L5.13165 10.6922H3.54494C3.24403 10.6924 3 10.4483 3 10.1474V7.97624C3 7.6752 3.24403 7.43117 3.54494 7.43117H5.13177L8.11094 4.9625C8.27372 4.82759 8.49943 4.79883 8.69045 4.88912C8.88147 4.97876 9.00374 5.17094 9.00374 5.3822L9.00361 12.7414ZM11.0979 11.8899C11.0846 11.8908 11.0718 11.8913 11.0586 11.8913C10.9147 11.8913 10.7759 11.8344 10.6734 11.7317L10.6005 11.6586C10.4094 11.4678 10.3869 11.1656 10.5479 10.9487C10.956 10.3985 11.1714 9.74623 11.1714 9.06199C11.1714 8.32603 10.9268 7.63573 10.464 7.06564C10.2879 6.84896 10.3041 6.53425 10.5016 6.33691L10.5743 6.26404C10.6832 6.15518 10.8291 6.09585 10.9869 6.10526C11.1407 6.113 11.2842 6.18536 11.3817 6.30454C12.0237 7.09002 12.3628 8.0437 12.3628 9.06212C12.3628 10.0106 12.0629 10.9135 11.4954 11.6727C11.4006 11.7992 11.2556 11.8786 11.0979 11.8899ZM13.3509 13.5739C13.2523 13.6904 13.1098 13.7603 12.9572 13.7668C12.9497 13.767 12.9421 13.7673 12.9344 13.7673C12.7901 13.7673 12.6515 13.7103 12.549 13.6077L12.4774 13.5362C12.2774 13.3362 12.2638 13.0165 12.4457 12.8001C13.3246 11.7548 13.8087 10.4274 13.8087 9.06199C13.8087 7.6418 13.2904 6.27461 12.3495 5.21234C12.1587 4.99668 12.1684 4.67024 12.3714 4.46645L12.4429 4.39487C12.5489 4.28833 12.6866 4.22964 12.8446 4.23467C12.9946 4.23893 13.1365 4.30523 13.2362 4.41744C14.3735 5.69795 15 7.34759 15 9.06199C15.0003 10.7115 14.4146 12.3139 13.3509 13.5739Z" fill="white"/>
</svg>
