<svg width="10" height="10" viewBox="0 0 10 10" fill="none" xmlns="http://www.w3.org/2000/svg">
<path fill-rule="evenodd" clip-rule="evenodd" d="M9.96845 4.4448C9.95264 4.30423 9.78874 4.1986 9.64702 4.1986C9.18881 4.1986 8.78221 3.92956 8.61169 3.51347C8.43749 3.0873 8.54981 2.59028 8.8913 2.27704C8.99879 2.17877 9.01185 2.01428 8.9217 1.90002C8.68718 1.60221 8.42063 1.3332 8.1296 1.10006C8.01563 1.00861 7.84842 1.02133 7.7496 1.13076C7.45157 1.46082 6.91623 1.58349 6.50256 1.41089C6.07207 1.2298 5.80061 0.793585 5.82718 0.325332C5.83592 0.178252 5.72843 0.0503713 5.5818 0.0332931C5.20831 -0.00990442 4.83155 -0.0112439 4.45695 0.0303166C4.31199 0.0463157 4.2045 0.171183 4.20937 0.316403C4.22567 0.780042 3.95093 1.20863 3.52472 1.38321C3.116 1.55016 2.58442 1.42853 2.28699 1.1014C2.18868 0.993648 2.02419 0.980403 1.90967 1.06966C1.61 1.30477 1.33746 1.57401 1.10078 1.86936C1.00847 1.98418 1.02205 2.15061 1.13062 2.24939C1.47862 2.56454 1.59099 3.06587 1.4102 3.49695C1.23759 3.90794 0.810827 4.17282 0.322259 4.17282C0.163719 4.16772 0.0507956 4.27413 0.0334571 4.41827C-0.0105218 4.79392 -0.0110427 5.17667 0.0312991 5.55536C0.0470005 5.69653 0.215884 5.80123 0.359169 5.80123C0.794568 5.7901 1.21259 6.05967 1.38795 6.4864C1.56275 6.91257 1.45038 7.40929 1.10837 7.72279C1.0014 7.82106 0.987822 7.98529 1.07797 8.09956C1.3103 8.39546 1.57689 8.66473 1.86896 8.89981C1.98352 8.99212 2.15021 8.9791 2.24952 8.86967C2.54866 8.53879 3.08396 8.41634 3.496 8.58928C3.92756 8.76981 4.19903 9.20599 4.17246 9.6745C4.16379 9.82165 4.2718 9.94976 4.41784 9.96658C4.6089 9.98886 4.80111 9.99999 4.99385 9.99999C5.1768 9.99999 5.35978 9.98994 5.54273 9.96959C5.68772 9.95359 5.79514 9.82872 5.79027 9.68324C5.77349 9.21986 6.04871 8.79127 6.47436 8.61699C6.88583 8.44893 7.41518 8.57194 7.71265 8.89873C7.81151 9.00626 7.97485 9.01924 8.09001 8.93028C8.38912 8.69573 8.6611 8.42672 8.89889 8.13055C8.99117 8.01599 8.97814 7.8493 8.86901 7.75055C8.52102 7.43541 8.40809 6.934 8.58888 6.50322C8.75884 6.0977 9.16976 5.82541 9.61175 5.82541L9.67358 5.82701C9.81694 5.83866 9.94884 5.72823 9.96622 5.58189C10.0103 5.20591 10.0108 4.8235 9.96845 4.4448ZM5.0078 6.67835C4.08811 6.67835 3.34002 5.93026 3.34002 5.01058C3.34002 4.09093 4.08811 3.3428 5.0078 3.3428C5.92745 3.3428 6.67554 4.09093 6.67554 5.01058C6.67554 5.93026 5.92745 6.67835 5.0078 6.67835Z" fill="#aaa" />
</svg>
