<?xml version="1.0" encoding="UTF-8"?>
<svg width="128" height="128" viewBox="0 0 128 128" xmlns="http://www.w3.org/2000/svg">
  <defs>
    <linearGradient id="brainGradient" x1="0%" y1="0%" x2="100%" y2="100%">
      <stop offset="0%" style="stop-color:#4f46e5;stop-opacity:1" />
      <stop offset="100%" style="stop-color:#7c3aed;stop-opacity:1" />
    </linearGradient>
    <linearGradient id="codeGradient" x1="0%" y1="0%" x2="100%" y2="100%">
      <stop offset="0%" style="stop-color:#10b981;stop-opacity:1" />
      <stop offset="100%" style="stop-color:#059669;stop-opacity:1" />
    </linearGradient>
    <filter id="glow">
      <feGaussianBlur stdDeviation="3" result="coloredBlur"/>
      <feMerge> 
        <feMergeNode in="coloredBlur"/>
        <feMergeNode in="SourceGraphic"/>
      </feMerge>
    </filter>
  </defs>
  
  <!-- Background circle -->
  <circle cx="64" cy="64" r="60" fill="url(#brainGradient)" opacity="0.1"/>
  
  <!-- Brain/AI symbol -->
  <g transform="translate(64,64)">
    <!-- Left brain hemisphere -->
    <path d="M -25 -20 Q -35 -25 -35 -10 Q -35 5 -25 10 Q -15 15 -10 5 Q -5 -5 -15 -15 Q -20 -20 -25 -20 Z" 
          fill="url(#brainGradient)" opacity="0.9"/>
    
    <!-- Right brain hemisphere -->
    <path d="M 25 -20 Q 35 -25 35 -10 Q 35 5 25 10 Q 15 15 10 5 Q 5 -5 15 -15 Q 20 -20 25 -20 Z" 
          fill="url(#brainGradient)" opacity="0.9"/>
    
    <!-- Neural connections -->
    <line x1="-20" y1="-5" x2="20" y2="-5" stroke="#4f46e5" stroke-width="2" opacity="0.6"/>
    <line x1="-15" y1="0" x2="15" y2="0" stroke="#4f46e5" stroke-width="2" opacity="0.6"/>
    <line x1="-20" y1="5" x2="20" y2="5" stroke="#4f46e5" stroke-width="2" opacity="0.6"/>
    
    <!-- Neural nodes -->
    <circle cx="-20" cy="-5" r="2" fill="#4f46e5"/>
    <circle cx="20" cy="-5" r="2" fill="#4f46e5"/>
    <circle cx="0" cy="0" r="2" fill="#4f46e5"/>
    <circle cx="-15" cy="5" r="2" fill="#4f46e5"/>
    <circle cx="15" cy="5" r="2" fill="#4f46e5"/>
  </g>
  
  <!-- Code brackets -->
  <g transform="translate(64,64)" filter="url(#glow)">
    <!-- Left bracket -->
    <path d="M -45 -15 L -40 -15 L -40 -10 L -45 -10 L -45 10 L -40 10 L -40 15 L -45 15 L -50 15 L -50 -15 Z" 
          fill="url(#codeGradient)" stroke="#10b981" stroke-width="1"/>
    
    <!-- Right bracket -->
    <path d="M 45 -15 L 40 -15 L 40 -10 L 45 -10 L 45 10 L 40 10 L 40 15 L 45 15 L 50 15 L 50 -15 Z" 
          fill="url(#codeGradient)" stroke="#10b981" stroke-width="1"/>
  </g>
  
  <!-- Terminal/Code lines -->
  <g transform="translate(64,64)" opacity="0.7">
    <line x1="-30" y1="25" x2="30" y2="25" stroke="url(#codeGradient)" stroke-width="2"/>
    <line x1="-25" y1="30" x2="25" y2="30" stroke="url(#codeGradient)" stroke-width="2"/>
    <line x1="-20" y1="35" x2="20" y2="35" stroke="url(#codeGradient)" stroke-width="2"/>
  </g>
  
  <!-- Subtle glow effect -->
  <circle cx="64" cy="64" r="62" fill="none" stroke="url(#brainGradient)" stroke-width="1" opacity="0.3"/>
</svg>
