<svg width="18" height="18" viewBox="0 0 18 18" fill="none" xmlns="http://www.w3.org/2000/svg">
<rect width="18" height="18" rx="3" transform="matrix(1 0 0 -1 0 18)" fill="#4993ff"/>
<g clip-path="url(#clip0)">
<path d="M7.86722 5.25003C6.69571 5.25003 5.74219 6.20355 5.74219 7.37506V12.5H4.86722C4.1087 12.5 3.49219 11.8836 3.49219 11.1251V4.37506C3.49219 3.61655 4.1087 3.00003 4.86722 3.00003H11.1172C11.8757 3.00003 12.4922 3.61655 12.4922 4.37506V5.25003H7.86722Z" fill="white"/>
<path d="M14.4922 13.625C14.4922 14.3845 13.8766 15 13.1172 15H7.86722C7.1077 15 6.49219 14.3845 6.49219 13.625V7.37503C6.49219 6.61551 7.1077 6 7.86722 6H13.1172C13.8766 6 14.4922 6.61551 14.4922 7.37503V13.625Z" fill="white"/>
</g>
<defs>
<clipPath id="clip0">
<rect width="12" height="12" fill="white" transform="matrix(1 0 0 -1 3 15)"/>
</clipPath>
</defs>
</svg>
