<svg width="13" height="13" viewBox="0 0 16 16" fill="none" xmlns="http://www.w3.org/2000/svg">
<path fill-rule="evenodd" clip-rule="evenodd" d="M15.9775 12.1682C15.9437 12.3213 15.9009 12.3966 15.7504 12.5677C15.6756 12.6527 14.9077 13.4289 14.044 14.2925C12.5867 15.7496 12.4644 15.8672 12.346 15.9249C12.1311 16.0296 11.8637 16.0246 11.6249 15.9113C11.5327 15.8676 11.2946 15.6363 9.8322 14.1695C8.03428 12.3663 8.08098 12.4177 8.02746 12.1849C7.92322 11.7314 8.2165 11.2927 8.68207 11.2059C8.82391 11.1795 8.97562 11.2054 9.14567 11.2852C9.2569 11.3374 9.34888 11.4234 10.1527 12.2264C10.9478 13.0207 11.0427 13.1095 11.0903 13.104C11.1243 13.1001 11.1517 13.081 11.1668 13.0509C11.1856 13.0135 11.1904 11.7684 11.1907 6.90618C11.191 0.184155 11.1824 0.663719 11.307 0.414782C11.3798 0.269438 11.5118 0.14526 11.6778 0.0659113C11.791 0.0118036 11.8139 0.00774765 12.0055 0.00774765C12.1905 0.00774765 12.2225 0.0129499 12.3202 0.0588312C12.5341 0.159383 12.7304 0.398311 12.7815 0.62028C12.794 0.674856 12.8006 2.77769 12.8011 6.85331C12.8017 11.7572 12.8067 13.0135 12.8254 13.0509C12.8405 13.081 12.868 13.1001 12.9018 13.104C12.9492 13.1095 13.0445 13.0205 13.8283 12.2384C14.6504 11.4182 14.7102 11.3627 14.8424 11.2979C15.0285 11.2067 15.1682 11.1794 15.3121 11.2063C15.4981 11.241 15.6325 11.3138 15.7654 11.452C15.9069 11.5991 15.9408 11.6594 15.9763 11.8271C16.0076 11.9755 16.0078 12.0305 15.9775 12.1682ZM7.98848 4.19122C7.94402 4.36772 7.79008 4.57959 7.6438 4.66557C7.36835 4.82747 7.07415 4.82633 6.79196 4.66228C6.74228 4.6334 6.34251 4.2495 5.84202 3.75008C5.06591 2.97559 4.97245 2.88835 4.92491 2.89385C4.89097 2.89778 4.86352 2.91682 4.84841 2.94693C4.82961 2.98436 4.82478 4.23098 4.82458 9.09929C4.8243 15.0843 4.82358 15.2075 4.78789 15.3475C4.73923 15.5383 4.70885 15.5923 4.56759 15.7392C4.30427 16.0129 3.97648 16.0629 3.62035 15.8834C3.51017 15.8279 3.40605 15.7233 3.33598 15.5976C3.20335 15.3597 3.21395 15.9201 3.21363 9.12653C3.21342 4.23633 3.20859 2.98437 3.18979 2.94693C3.17468 2.91682 3.14723 2.89778 3.11326 2.89385C3.06568 2.88835 2.97076 2.97709 2.17742 3.76886C1.67086 4.27446 1.25838 4.67103 1.20967 4.69933C1.10475 4.76031 0.98802 4.80282 0.858215 4.8273C0.569226 4.88184 0.195486 4.66523 0.0532293 4.36076C0.00727749 4.2624 0.00250244 4.23183 0.00250244 4.03581C0.00250244 3.65567 -0.145523 3.83244 1.83529 1.84711C3.31463 0.364394 3.55574 0.130198 3.64789 0.0865135C3.94281 -0.0533085 4.26128 -0.0224323 4.51225 0.170332C4.61521 0.249399 7.55884 3.19192 7.74083 3.39766C7.93159 3.61334 7.99179 3.74345 7.99999 3.95782C8.00342 4.04742 7.99823 4.15244 7.98848 4.19122Z" fill="#666666"/>
</svg>
