<svg width="14" height="14" viewBox="0 0 16 16" fill="none" xmlns="http://www.w3.org/2000/svg">
<path fill-rule="evenodd" clip-rule="evenodd" d="M12.1682 0.0225343C12.3213 0.0562588 12.3966 0.099065 12.5677 0.249636C12.6527 0.324425 13.4289 1.09228 14.2925 1.95599C15.7496 3.41329 15.8672 3.53557 15.9249 3.65399C16.0296 3.86886 16.0246 4.13626 15.9113 4.37509C15.8676 4.46725 15.6363 4.70538 14.1695 6.1678C12.3663 7.96572 12.4177 7.91902 12.1849 7.97254C11.7314 8.07678 11.2927 7.7835 11.2059 7.31793C11.1795 7.17609 11.2054 7.02438 11.2852 6.85433C11.3374 6.7431 11.4234 6.65112 12.2264 5.8473C13.0207 5.05222 13.1095 4.95732 13.104 4.90972C13.1001 4.87575 13.081 4.8483 13.0509 4.83318C13.0135 4.81438 11.7684 4.80955 6.90618 4.80935C0.184155 4.80903 0.663719 4.81764 0.414782 4.69297C0.269438 4.62018 0.14526 4.48823 0.0659113 4.32221C0.0118036 4.20897 0.00774765 4.18613 0.00774765 3.99451C0.00774765 3.80949 0.0129499 3.77747 0.0588312 3.67983C0.159383 3.46586 0.398311 3.26956 0.62028 3.21853C0.674856 3.20598 2.77769 3.19936 6.85331 3.19887C11.7572 3.19827 13.0135 3.19334 13.0509 3.17456C13.081 3.15947 13.1001 3.132 13.104 3.0982C13.1095 3.05083 13.0205 2.95553 12.2384 2.17172C11.4182 1.34962 11.3627 1.28976 11.2979 1.15761C11.2067 0.9715 11.1794 0.831809 11.2063 0.687942C11.241 0.501886 11.3138 0.367531 11.452 0.234618C11.5991 0.0930541 11.6594 0.0591798 11.8271 0.0237326C11.9755 -0.00761369 12.0305 -0.00780085 12.1682 0.0225343ZM4.19122 8.01152C4.36772 8.05598 4.57959 8.20992 4.66557 8.3562C4.82747 8.63165 4.82633 8.92585 4.66228 9.20804C4.6334 9.25772 4.2495 9.65749 3.75008 10.158C2.97559 10.9341 2.88835 11.0276 2.89385 11.0751C2.89778 11.109 2.91682 11.1365 2.94693 11.1516C2.98436 11.1704 4.23098 11.1752 9.09929 11.1754C15.0843 11.1757 15.2075 11.1764 15.3475 11.2121C15.5383 11.2608 15.5923 11.2911 15.7392 11.4324C16.0129 11.6957 16.0629 12.0235 15.8834 12.3797C15.8279 12.4898 15.7233 12.5939 15.5976 12.664C15.3597 12.7967 15.9201 12.7861 9.12653 12.7864C4.23633 12.7866 2.98438 12.7914 2.94693 12.8102C2.91682 12.8253 2.89778 12.8528 2.89385 12.8867C2.88835 12.9343 2.97709 13.0292 3.76886 13.8226C4.27446 14.3291 4.67103 14.7416 4.69933 14.7903C4.76031 14.8952 4.80282 15.012 4.8273 15.1418C4.88184 15.4308 4.66523 15.8045 4.36076 15.9468C4.2624 15.9927 4.23183 15.9975 4.03581 15.9975C3.65567 15.9975 3.83244 16.1455 1.84711 14.1647C0.364394 12.6854 0.130198 12.4443 0.0865135 12.3521C-0.0533085 12.0572 -0.0224323 11.7387 0.170332 11.4877C0.249399 11.3848 3.19192 8.44116 3.39766 8.25917C3.61334 8.06841 3.74345 8.00821 3.95782 8.00001C4.04742 7.99658 4.15244 8.00177 4.19122 8.01152Z" fill="#ebebeb"/>
</svg>
