<svg width="8" height="8" viewBox="0 0 10 10" fill="none" xmlns="http://www.w3.org/2000/svg">
<path fill-rule="evenodd" clip-rule="evenodd" d="M1.73263 0.00476907C1.53331 0.0369566 1.29264 0.107287 1.13948 0.178112C0.751334 0.357598 0.377408 0.72725 0.187849 1.11888C0.129415 1.2396 0.0520483 1.47137 0.0211814 1.61814C0.00129646 1.71267 0.000180618 1.89299 0.000180618 5.00135C0.000180618 8.67818 -0.00793543 8.33125 0.0846418 8.61364C0.193933 8.94706 0.337638 9.1831 0.577209 9.4227C0.816768 9.66231 1.05277 9.80604 1.38614 9.91535C1.66849 10.0079 1.32161 9.99982 4.99785 9.99982C8.10572 9.99982 8.28601 9.9987 8.38052 9.97882C8.5276 9.94788 8.75893 9.87058 8.88177 9.81131C9.26963 9.62421 9.6413 9.24761 9.82032 8.86033C9.86914 8.75474 9.94757 8.51273 9.97452 8.38457C9.99404 8.29177 9.99552 8.18223 9.99552 6.83393V5.38314L9.95792 5.30374C9.88521 5.15023 9.74686 5.0413 9.58724 5.01188C9.37632 4.97301 9.15779 5.09359 9.05825 5.30374L9.02065 5.38314L9.01373 6.73995C9.00869 7.72756 9.00295 8.11594 8.99264 8.16724C8.9157 8.55007 8.67882 8.82938 8.3288 8.95001C8.11912 9.02228 8.28164 9.01892 4.99785 9.01892C1.71406 9.01892 1.87658 9.02228 1.6669 8.95001C1.36811 8.84704 1.15278 8.63167 1.04982 8.33283C0.977562 8.12312 0.980922 8.28567 0.980922 5.00135C0.980922 1.71704 0.977562 1.87959 1.04982 1.66987C1.17043 1.31979 1.4497 1.08288 1.83246 1.00593C1.88376 0.995616 2.27208 0.989872 3.25953 0.984832L4.61612 0.977913L4.69551 0.94031C4.849 0.867583 4.95791 0.729212 4.98733 0.569566C5.02619 0.35862 4.90562 0.140051 4.69551 0.0404924L4.61612 0.00288947L3.18906 0.00145628C2.40417 0.000669211 1.74878 0.00216118 1.73263 0.00476907ZM6.3606 0.015741C6.10221 0.0856138 5.9552 0.353405 6.02601 0.625283C6.05448 0.734592 6.12603 0.833281 6.22738 0.903024C6.34098 0.981202 6.28932 0.97715 7.25559 0.983705L8.13324 0.989661L8.15858 1.01502C8.17809 1.03453 8.18205 1.04809 8.17574 1.07376C8.16999 1.09722 7.64031 1.63555 6.39173 2.88685C5.08869 4.19274 4.60588 4.68376 4.57828 4.73117C4.44422 4.96138 4.50217 5.26452 4.70704 5.40481C4.78883 5.46081 4.85595 5.48352 4.96261 5.49126C5.08425 5.50008 5.18067 5.4741 5.28561 5.40422C5.34635 5.36377 5.82828 4.88969 7.12964 3.59028C8.36905 2.35273 8.90134 1.82869 8.92482 1.82294C8.95048 1.81665 8.96405 1.82062 8.98355 1.84012L9.0089 1.86547L9.01486 2.74326C9.02141 3.70968 9.01736 3.65801 9.09553 3.77163C9.16526 3.87299 9.26393 3.94456 9.37322 3.97303C9.59754 4.03146 9.81747 3.94234 9.93976 3.74343C10.0039 3.63914 10.0021 3.69395 9.99866 1.96359C9.99572 0.465662 9.99423 0.363789 9.97465 0.314192C9.92348 0.184655 9.82112 0.0807739 9.69271 0.0280521L9.63141 0.00288947L8.02816 0.000622232C6.64433 -0.00133956 6.41612 0.000727988 6.3606 0.015741Z" fill="#3289F0"/>
</svg>
