<svg width="32" height="32" viewBox="0 0 32 32" fill="none" xmlns="http://www.w3.org/2000/svg">
<path d="M14.9333 12.6837C14.9128 12.6031 14.8085 12.5812 14.7574 12.6469L10.1441 18.5799C10.1346 18.592 10.1281 18.6062 10.125 18.6213L8.85846 24.8417C8.84231 24.921 8.92221 24.9857 8.99642 24.9533L14.8396 22.4058C14.855 22.3991 14.8685 22.3886 14.8788 22.3753L19.4036 16.5121C19.4263 16.4825 19.4308 16.4428 19.4151 16.4089L18.3652 14.1443C18.349 14.1094 18.3142 14.0869 18.2757 14.0864L15.3565 14.0498C15.3112 14.0493 15.272 14.0183 15.2608 13.9744L14.9333 12.6837Z" fill="#484063"/>
<path d="M17.8401 6.16758L23.0018 7.3998C23.0555 7.41263 23.0887 7.46659 23.0758 7.52032L21.6998 13.2764C21.6814 13.3535 21.5847 13.3795 21.5301 13.322L20.2324 11.957C20.2033 11.9263 20.158 11.9174 20.1193 11.9346L17.3246 13.1785C17.2793 13.1987 17.2261 13.1826 17.1995 13.1407L16.379 11.8458C16.3644 11.8228 16.3598 11.7949 16.3663 11.7685L17.7197 6.24107C17.7328 6.18764 17.7866 6.15481 17.8401 6.16758Z" fill="#484063"/>
<path d="M22.2421 22.0637C21.8906 21.7123 21.8906 21.1424 22.2421 20.7909C22.5936 20.4395 23.1634 20.4395 23.5149 20.7909C23.8664 21.1424 23.8664 21.7123 23.5149 22.0637C23.1634 22.4152 22.5936 22.4152 22.2421 22.0637Z" fill="#484063"/>
<path d="M9.57087 13.9923C9.2975 13.7189 9.2975 13.2757 9.57087 13.0023C9.84424 12.729 10.2875 12.729 10.5608 13.0023C10.8342 13.2757 10.8342 13.7189 10.5608 13.9923C10.2875 14.2656 9.84424 14.2656 9.57087 13.9923Z" fill="#484063"/>
<path d="M11.9535 8.8615C11.5044 8.4124 11.5044 7.68426 11.9535 7.23516C12.4026 6.78605 13.1308 6.78605 13.5799 7.23516C14.029 7.68426 14.029 8.4124 13.5799 8.8615C13.1308 9.31061 12.4026 9.31061 11.9535 8.8615Z" fill="#484063"/>
</svg>
