<svg xmlns="http://www.w3.org/2000/svg" width="12" height="12" viewBox="0 0 12 12" fill="none">
    <path fill-rule="evenodd" clip-rule="evenodd" d="M3.81818 0L0 1.83514e-06V12H12V8.18182H11V11H1V1L3.81818 1V0Z" fill="white"/>
    <path fill-rule="evenodd" clip-rule="evenodd" d="M11.4546 0.045456C11.7307 0.045456 11.9546 0.269314 11.9546 0.545456V5.04546C11.9546 5.3216 11.7307 5.54546 11.4546 5.54546C11.1784 5.54546 10.9546 5.3216 10.9546 5.04546V1.75256L4.17175 8.53537L3.46464 7.82827L10.2475 1.04546L6.95456 1.04546C6.67842 1.04546 6.45456 0.821598 6.45456 0.545456C6.45456 0.269313 6.67842 0.0454559 6.95456 0.0454559L11.4546 0.045456Z" fill="white"/>
</svg>
