<svg width="32" height="32" viewBox="0 0 32 32" fill="none" xmlns="http://www.w3.org/2000/svg">
<path fill-rule="evenodd" clip-rule="evenodd" d="M20.5909 6.91662C20.6289 6.87656 20.6922 6.87485 20.7322 6.91281L24.991 10.9456C25.0311 10.9835 25.0329 11.0469 24.9949 11.087L13.9448 22.7461C13.9337 22.7579 13.9198 22.7667 13.9045 22.772L7.87034 24.8296C7.79371 24.8558 7.71941 24.7848 7.74205 24.707L9.51663 18.6129C9.52108 18.5976 9.52912 18.5836 9.54008 18.5721L20.5909 6.91662Z" fill="#FA1E4E"/>
<path d="M22.9394 17.5354C22.5879 17.1839 22.5879 16.6141 22.9394 16.2626C23.2909 15.9112 23.8607 15.9112 24.2122 16.2626C24.5636 16.6141 24.5636 17.1839 24.2122 17.5354C23.8607 17.8869 23.2909 17.8869 22.9394 17.5354Z" fill="#FA1E4E"/>
<path d="M20.1371 24.4904C20.1503 24.5241 20.201 24.5241 20.2144 24.4906L20.8617 22.8673C20.8658 22.857 20.8745 22.8488 20.8855 22.8448L22.6493 22.2085C22.6852 22.1956 22.6844 22.1478 22.6482 22.1359L20.8867 21.5561C20.875 21.5523 20.8657 21.5437 20.8615 21.5328L20.2146 19.8546C20.2014 19.8205 20.15 19.8206 20.1369 19.8548L19.4973 21.5326C19.4931 21.5436 19.4838 21.5523 19.4721 21.5561L17.7034 22.1359C17.6671 22.1478 17.6664 22.1956 17.7023 22.2085L19.4732 22.8448C19.4843 22.8487 19.493 22.857 19.4971 22.8675L20.1371 24.4904Z" fill="#FA1E4E"/>
<path d="M9.4476 14.0018C9.45953 14.0321 9.50515 14.0322 9.5172 14.002L10.0997 12.5411C10.1035 12.5317 10.1113 12.5243 10.1212 12.5208L11.7086 11.9481C11.7409 11.9365 11.7402 11.8935 11.7076 11.8828L10.1222 11.361C10.1117 11.3575 10.1034 11.3498 10.0996 11.3399L9.51734 9.82962C9.50551 9.79892 9.45918 9.799 9.44746 9.82974L8.87179 11.3398C8.86801 11.3497 8.85967 11.3575 8.84908 11.361L7.2573 11.8827C7.22465 11.8934 7.22397 11.9365 7.25627 11.9481L8.85011 12.5207C8.86009 12.5243 8.86795 12.5318 8.87165 12.5412L9.4476 14.0018Z" fill="#FA1E4E"/>
</svg>
