<svg width="16" height="17" viewBox="0 0 16 17" fill="none" xmlns="http://www.w3.org/2000/svg">
<path d="M5.82092 2.38912C4.19581 2.94564 2.81192 4.16095 2.04451 5.69719C1.77718 6.2269 1.5818 6.79188 1.46472 7.37309C1.16988 8.82116 1.37514 10.3652 2.0431 11.6834C2.47688 12.544 3.0997 13.3093 3.85442 13.9095C4.56682 14.4773 5.39701 14.897 6.27657 15.1312C7.38679 15.4288 8.56894 15.4225 9.68691 15.1678C10.697 14.9351 11.6534 14.4526 12.4166 13.748C13.2235 13.0067 13.7991 12.0298 14.1031 10.9802C14.4353 9.83544 14.4811 8.61308 14.2731 7.4408C12.1817 7.44009 10.0911 7.44009 7.99973 7.4408C7.99973 8.30837 7.99902 9.17524 8.00043 10.0428C9.21151 10.0428 10.4226 10.0421 11.6337 10.0428C11.4933 10.8737 10.9996 11.6341 10.2992 12.1017C9.85902 12.398 9.35258 12.5898 8.83133 12.6815C8.30655 12.7711 7.76414 12.7824 7.24007 12.6766C6.70754 12.5701 6.19899 12.3486 5.75603 12.0354C5.04716 11.5374 4.50616 10.8088 4.22825 9.9885C3.944 9.15408 3.94188 8.22585 4.22966 7.39213C4.42928 6.80458 4.76079 6.26217 5.1974 5.82062C5.73487 5.27046 6.43387 4.87617 7.18788 4.71535C7.83327 4.57781 8.51322 4.6039 9.14521 4.79505C9.68198 4.95799 10.1771 5.25212 10.5827 5.63935C10.9925 5.23166 11.4002 4.82186 11.8093 4.41346C12.0237 4.19339 12.2494 3.98391 12.4568 3.75749C11.8354 3.18264 11.1075 2.72063 10.3111 2.42792C8.87859 1.90102 7.26335 1.88974 5.82092 2.38912Z" fill="white"/>
<path d="M5.82094 2.38904C7.26337 1.88966 8.87861 1.90094 10.3119 2.42854C11.1075 2.72055 11.8361 3.18255 12.4575 3.75811C12.2495 3.98382 12.0244 4.19402 11.81 4.41408C11.4009 4.82248 10.9932 5.23228 10.5834 5.63997C10.1779 5.25274 9.6827 4.95861 9.14594 4.79568C8.51395 4.60453 7.83399 4.57843 7.1886 4.71597C6.4353 4.8775 5.7356 5.27108 5.19742 5.82195C4.76151 6.2635 4.4293 6.80591 4.22969 7.39346C3.50106 6.82777 2.77244 6.26209 2.04382 5.69711C2.81124 4.16087 4.19512 2.94556 5.82094 2.38904Z" fill="#E43729"/>
<path d="M1.46472 7.37316C1.5818 6.79196 1.77718 6.22698 2.0438 5.69727C2.77242 6.26225 3.50034 6.82723 4.22896 7.39221C3.94118 8.22592 3.94329 9.15416 4.22755 9.98858C3.49963 10.5536 2.77172 11.1192 2.0431 11.6835C1.37514 10.3652 1.16988 8.82123 1.46472 7.37316Z" fill="#FABE00"/>
<path d="M7.99972 7.44074C10.0911 7.44074 12.1817 7.44004 14.273 7.44074C14.4811 8.61302 14.4353 9.83468 14.103 10.9802C13.7983 12.0297 13.2228 13.0066 12.4166 13.7479C11.7112 13.1985 11.0038 12.6518 10.2984 12.1017C10.9988 11.634 11.4926 10.8737 11.6329 10.0428C10.4219 10.0421 9.21079 10.0428 7.99972 10.0428C7.99901 9.17589 8.00042 8.30832 7.99972 7.44074Z" fill="#597DBE"/>
<path d="M2.04297 11.6842C2.77159 11.1199 3.4995 10.5542 4.22742 9.98926C4.50533 10.8096 5.04632 11.5382 5.7552 12.0362C6.19886 12.3486 6.70671 12.5708 7.23924 12.6773C7.76261 12.7831 8.30502 12.7718 8.8305 12.6823C9.35175 12.5906 9.85818 12.3987 10.2983 12.1025C11.0037 12.6526 11.7111 13.1993 12.4165 13.7487C11.6533 14.4534 10.6975 14.9358 9.68679 15.1686C8.56881 15.4232 7.38666 15.4296 6.27645 15.1319C5.39618 14.8978 4.56599 14.4781 3.85429 13.9103C3.09957 13.3107 2.47746 12.5454 2.04297 11.6842Z" fill="#33A044"/>
</svg>
